<svg width="20" height="20" fill="none" xmlns="http://www.w3.org/2000/svg"><path d="M2.725 1.67h7.273a.15.15 0 0 1 .15.148v7.273a.15.15 0 0 1-.15.15H2.726a.15.15 0 0 1-.15-.15V1.818a.15.15 0 0 1 .15-.149Z" stroke="#0086C9" stroke-width="1.52" stroke-linejoin="round"/><path d="M7.113 11.818a.75.75 0 1 0-1.5 0h1.5Zm-1.5 0v2.728h1.5v-2.728h-1.5Zm1.66 4.387h3.636v-1.5H7.272v1.5Zm-1.66-1.66c0 .917.743 1.66 1.66 1.66v-1.5a.16.16 0 0 1-.16-.16h-1.5Z" fill="#0086C9"/><path d="m10.757 14.736 1.111-1.223a2.886 2.886 0 0 1 2.136-.945h1.609v5.773h-1.609a2.886 2.886 0 0 1-2.136-.945l-1.111-1.223a1.068 1.068 0 0 1 0-1.437Z" stroke="#0086C9" stroke-width="1.5" stroke-linejoin="round"/><path d="M16.363 13.636h1.819m-1.819 3.637h1.819" stroke="#0086C9" stroke-width="1.5" stroke-linecap="round" stroke-linejoin="round"/></svg>