<svg width="24" height="24" fill="none" xmlns="http://www.w3.org/2000/svg"><path d="m4.069 16.151-.616-.428.616.428Zm1.168-3.614-.75-.008v.008h.75Zm.025-2.185.75.008v-.008h-.75Zm14.674 5.817.624-.416-.624.416Zm-1.124-3.632-.75-.009v.009h.75Zm.024-2.077.75.009v-.01h-.75Zm-9.049 9.044a.75.75 0 0 0-.933 1.174l.933-1.174Zm5.358 1.174a.75.75 0 1 0-.934-1.174l.934 1.174ZM4.685 16.58c.656-.943 1.302-2.343 1.302-4.043h-1.5c0 1.316-.501 2.421-1.034 3.186l1.231.857Zm1.302-4.035.025-2.185-1.5-.017-.025 2.186 1.5.016Zm14.573 3.208c-.51-.765-.998-1.881-.998-3.216h-1.5c0 1.702.62 3.104 1.25 4.048l1.248-.832Zm-.998-3.207.024-2.077-1.5-.018-.024 2.077 1.5.018Zm.024-2.086c0-4.471-3.336-8.21-7.587-8.21v1.5c3.302 0 6.087 2.941 6.087 6.71h1.5Zm-.06 7.472c.64 0 1.012-.483 1.153-.846.146-.373.173-.895-.12-1.333l-1.247.832a.185.185 0 0 1-.023-.046.072.072 0 0 1-.003-.017l-.001.007a.03.03 0 0 1-.003.012c-.004.01 0-.008.032-.035a.333.333 0 0 1 .213-.074v1.5Zm-13.514-7.58c0-3.71 2.74-6.602 5.987-6.602v-1.5c-4.195 0-7.487 3.69-7.487 8.102h1.5Zm-1.54 6.08a.33.33 0 0 1 .216.076c.032.027.034.043.03.031a.077.077 0 0 1-.005-.021v-.003.004a.187.187 0 0 1-.028.06l-1.232-.856c-.305.44-.28.97-.138 1.347.137.364.508.862 1.158.862v-1.5Zm15.055 0H4.473v1.5h15.054v-1.5Zm-7.528 3.818a3.55 3.55 0 0 1-2.212-.746l-.933 1.174a5.049 5.049 0 0 0 3.145 1.072v-1.5Zm2.212-.746A3.55 3.55 0 0 1 12 20.25v1.5c1.196 0 2.3-.4 3.146-1.072l-.934-1.174Z" fill="#fff"/></svg>