<svg width="20" height="20" fill="none" xmlns="http://www.w3.org/2000/svg"><g clip-path="url(#a)"><path d="M12.5 18.274a.25.25 0 0 1-.25-.25v-5.572a.25.25 0 0 1 .25-.25h6a.25.25 0 0 1 .25.25v5.572a.25.25 0 0 1-.25.25h-6Zm-11 0a.25.25 0 0 1-.25-.25v-5.572a.25.25 0 0 1 .25-.25h6a.25.25 0 0 1 .25.25v5.572a.25.25 0 0 1-.25.25h-6Zm11-10.476a.25.25 0 0 1-.25-.25V1.976a.25.25 0 0 1 .25-.25h6a.25.25 0 0 1 .25.25v5.572a.25.25 0 0 1-.25.25h-6Zm-11 0a.25.25 0 0 1-.25-.25V1.976a.25.25 0 0 1 .25-.25h6a.25.25 0 0 1 .25.25v5.572a.25.25 0 0 1-.25.25h-6Z" stroke="#D5D7DA" stroke-width="2.5"/></g><defs><clipPath id="a"><path fill="#fff" d="M0 0h20v20H0z"/></clipPath></defs></svg>