<svg width="20" height="20" fill="none" xmlns="http://www.w3.org/2000/svg"><path d="M2.5 7.5h15m-3.333 3.335-8.334-.002m2.778 3.334H5.833m0-11.667v1.667M14.167 2.5v1.667m-9 13.333h9.666c.934 0 1.4 0 1.757-.182.314-.16.569-.414.728-.728.182-.357.182-.823.182-1.757v-8c0-.933 0-1.4-.182-1.756a1.666 1.666 0 0 0-.728-.729c-.357-.181-.823-.181-1.757-.181H5.167c-.934 0-1.4 0-1.757.181a1.66 1.66 0 0 0-.728.729C2.5 5.433 2.5 5.9 2.5 6.833v8c0 .934 0 1.4.182 1.757.16.314.414.569.728.728.357.182.823.182 1.757.182Z" stroke="#A4A7AE" stroke-width="1.5" stroke-linecap="round" stroke-linejoin="round"/></svg>