<svg width="16" height="16" fill="none" xmlns="http://www.w3.org/2000/svg"><g clip-path="url(#a)"><path d="M16 12a1.778 1.778 0 0 1-1.778 1.777H1.778A1.778 1.778 0 0 1 0 12V4a1.778 1.778 0 0 1 1.778-1.778h12.444A1.778 1.778 0 0 1 16 3.999v8Z" fill="#DE2910"/><path d="m4.95 3.99.328.159.261-.252-.049.36.32.172-.357.064-.064.357-.172-.32-.36.05.252-.263-.159-.327Zm2.074 1.307-.158.327.251.262-.36-.05-.171.321-.064-.358-.358-.064.32-.171-.05-.36.263.252.327-.159Zm-.426 1.68.12.343.363.008-.29.219.106.348-.299-.208-.298.208.105-.348-.29-.22.364-.007.12-.343ZM4.95 8.435l.328.158.261-.252-.049.36.32.172-.357.064-.064.357-.172-.32-.36.05.252-.262-.159-.327ZM3.112 4.868l.413 1.187 1.256.026-1.001.759.364 1.202-1.032-.717-1.031.717.364-1.202-1.002-.76L2.7 6.056l.413-1.187Z" fill="#FFDE02"/></g><defs><clipPath id="a"><path fill="#fff" d="M0 0h16v16H0z"/></clipPath></defs></svg>