<svg width="16" height="16" fill="none" xmlns="http://www.w3.org/2000/svg"><path d="M10.133 10.538a.6.6 0 1 0 .537-1.073l-.537 1.073ZM8.002 8.802h-.6a.6.6 0 0 0 .331.536l.269-.536Zm.6-4.4a.6.6 0 0 0-1.2 0h1.2Zm2.068 5.063-2.4-1.2-.537 1.073 2.4 1.2.537-1.073Zm-2.068-.663v-4.4h-1.2v4.4h1.2Zm5.2-.8a5.8 5.8 0 0 1-5.8 5.8v1.2a7 7 0 0 0 7-7h-1.2Zm-5.8 5.8a5.8 5.8 0 0 1-5.8-5.8h-1.2a7 7 0 0 0 7 7v-1.2Zm-5.8-5.8a5.8 5.8 0 0 1 5.8-5.8v-1.2a7 7 0 0 0-7 7h1.2Zm5.8-5.8a5.8 5.8 0 0 1 5.8 5.8h1.2a7 7 0 0 0-7-7v1.2Z" fill="#0A0D12"/></svg>