<svg width="28" height="28" fill="none" xmlns="http://www.w3.org/2000/svg"><path d="M24.5 9.332v4.667h-2.333v-3.5h-5.834V4.665h-10.5v18.667h7v2.333H4.658A1.159 1.159 0 0 1 3.5 24.508V3.489c0-.626.524-1.157 1.169-1.157h12.828l7.003 7Zm-8.416 8.548a1.73 1.73 0 0 1 1.544-1.628l1.015-.108A.583.583 0 0 0 18.97 16l.76-.683a1.727 1.727 0 0 1 2.243-.058l.795.641a.58.58 0 0 0 .332.127l1.02.055c.848.046 1.538.7 1.628 1.545l.108 1.015a.583.583 0 0 0 .144.326l.683.759a1.73 1.73 0 0 1 .058 2.244l-.642.795a.584.584 0 0 0-.127.332l-.055 1.02a1.727 1.727 0 0 1-1.544 1.628l-1.015.107a.583.583 0 0 0-.326.145l-.76.682a1.727 1.727 0 0 1-2.243.059l-.795-.642a.584.584 0 0 0-.332-.127l-1.02-.055a1.727 1.727 0 0 1-1.628-1.545l-.108-1.015a.583.583 0 0 0-.144-.325l-.683-.76a1.727 1.727 0 0 1-.058-2.243l.642-.796a.584.584 0 0 0 .127-.331l.055-1.02Zm8.451 1.987-1.237-1.237-2.881 2.882-1.715-1.715-1.237 1.237 2.952 2.951 4.118-4.118Z" fill="#0A0D12"/></svg>