<svg width="12" height="3" fill="none" xmlns="http://www.w3.org/2000/svg"><path d="M1.4 2.112a.9.9 0 0 1-.64-.24.9.9 0 0 1-.24-.64C.52.976.6.768.76.608A.868.868 0 0 1 1.4.352c.256 0 .464.085.624.256.17.16.256.368.256.624s-.085.47-.256.64a.844.844 0 0 1-.624.24Zm4.797 0a.9.9 0 0 1-.64-.24.9.9 0 0 1-.24-.64c0-.256.08-.464.24-.624a.868.868 0 0 1 .64-.256c.256 0 .464.085.624.256.17.16.256.368.256.624s-.085.47-.256.64a.844.844 0 0 1-.624.24Zm4.797 0a.9.9 0 0 1-.64-.24.9.9 0 0 1-.24-.64c0-.256.08-.464.24-.624a.868.868 0 0 1 .64-.256c.256 0 .464.085.624.256.17.16.256.368.256.624s-.086.47-.256.64a.844.844 0 0 1-.624.24Z" fill="#0D0F1C"/></svg>