<svg width="28" height="28" fill="none" xmlns="http://www.w3.org/2000/svg"><g clip-path="url(#a)" fill="#0A0D12"><path d="m23.865 4.136 2.933.586a.434.434 0 0 1 .338.536.438.438 0 0 1-.114.203l-2.403 2.404a1.54 1.54 0 0 1-1.083.448h-1.994l-5.005 5.007a2.626 2.626 0 1 1-5.162.68 2.624 2.624 0 0 1 3.306-2.535l5.007-5.009v-1.99c0-.405.16-.796.448-1.083L22.54.98a.437.437 0 0 1 .739.224l.586 2.933Z"/><path d="M3.502 14.001a10.5 10.5 0 1 0 20.596-2.898 1.316 1.316 0 0 1 1.91-1.559 1.313 1.313 0 0 1 .613.837A13.129 13.129 0 0 1 4.724 23.28 13.127 13.127 0 0 1 17.623 1.382a1.312 1.312 0 0 1-.723 2.524A10.5 10.5 0 0 0 3.502 14Z"/><path d="M8.75 14a5.254 5.254 0 0 0 8.224 4.332 5.25 5.25 0 0 0 2.24-4.947 1.308 1.308 0 0 1 1.829-1.368 1.313 1.313 0 0 1 .779 1.067 7.875 7.875 0 1 1-6.918-6.907 1.312 1.312 0 1 1-.298 2.608 5.25 5.25 0 0 0-5.855 5.214Z"/></g><defs><clipPath id="a"><path fill="#fff" d="M0 0h28v28H0z"/></clipPath></defs></svg>