<svg width="24" height="24" fill="none" xmlns="http://www.w3.org/2000/svg"><path d="m10 15.5 3 1s7.5-1.5 8.5-1.5 1 1 0 2-4.5 4-7.5 4-5-1.5-7-1.5H2" stroke="#0086C9" stroke-width="1.5" stroke-linecap="round" stroke-linejoin="round"/><path d="M2 13.5c1-1 3-2.5 5-2.5s6.75 2 7.5 3-1.5 2.5-1.5 2.5M8 8V4a1 1 0 0 1 1-1h12a1 1 0 0 1 1 1v8" stroke="#0086C9" stroke-width="1.5" stroke-linecap="round" stroke-linejoin="round"/><path d="M17.5 3h-5v4.5h5V3Z" stroke="#0086C9" stroke-width="1.5" stroke-linecap="round" stroke-linejoin="round"/></svg>