<svg width="36" height="36" fill="none" xmlns="http://www.w3.org/2000/svg"><path d="M33.52 5.898H2.484c-1.2 0-2.172.973-2.172 2.173v19.862c0 1.2.972 2.172 2.172 2.172h31.034c1.2 0 2.173-.972 2.173-2.172V8.07c0-1.2-.973-2.173-2.173-2.173Z" fill="#fff"/><path d="M21.296 23.574h-6.425V12.113h6.425v11.46Z" fill="#FF5F00"/><path d="M15.283 17.842a7.257 7.257 0 0 1 2.804-5.73 7.346 7.346 0 0 0-4.538-1.558c-4.055 0-7.342 3.263-7.342 7.288 0 4.026 3.287 7.29 7.342 7.29 1.713 0 3.29-.583 4.538-1.56a7.257 7.257 0 0 1-2.804-5.73Z" fill="#EB001B"/><path d="M29.959 17.842c0 4.026-3.287 7.29-7.343 7.29a7.348 7.348 0 0 1-4.538-1.56 7.256 7.256 0 0 0 0-11.46 7.348 7.348 0 0 1 4.538-1.558c4.056 0 7.343 3.263 7.343 7.288Z" fill="#F79E1B"/></svg>