<svg width="36" height="36" fill="none" xmlns="http://www.w3.org/2000/svg"><g clip-path="url(#a)"><path d="M1.846 6.46h32.308c1.02 0 1.846.827 1.846 1.847v19.385c0 1.02-.826 1.846-1.846 1.846H1.846A1.846 1.846 0 0 1 0 27.692V8.307c0-1.02.826-1.846 1.846-1.846Z" fill="#fff"/><path d="M25.113 17.561v4.985h2.77v-2.954h3.138a3.072 3.072 0 0 0 2.866-2.03h-8.774Z" fill="#37A72E"/><path d="M24.742 13.454c.162 2.035 2.091 3.646 4.445 3.646H34a3.069 3.069 0 0 0-2.99-3.646h-6.27Z" fill="url(#b)"/><path d="M20.647 17.05a.166.166 0 0 1 .147-.088c.093 0 .162.073.166.161V22.5h2.77v-9.046h-2.77c-.35.014-.747.268-.895.586l-2.201 4.726a.27.27 0 0 1-.024.056.185.185 0 0 1-.336-.107v-5.261h-2.77V22.5h2.77c.346-.018.733-.272.881-.586l2.262-4.85c-.005-.006 0-.01 0-.015Zm-10.339.156L8.688 22.5H6.694l-1.616-5.299a.18.18 0 0 0-.18-.147.18.18 0 0 0-.18.18v5.261H1.95V13.45h3.083c.508 0 1.043.397 1.191.882l1.348 4.407c.069.222.175.217.244 0l1.348-4.407c.148-.49.683-.882 1.19-.882h3.084v9.046h-2.77V17.23a.18.18 0 0 0-.18-.18.188.188 0 0 0-.18.157Z" fill="#37A72E"/></g><defs><linearGradient id="b" x1="1.953" y1="17.998" x2="34.054" y2="17.998" gradientUnits="userSpaceOnUse"><stop stop-color="#00A0E5"/><stop offset="1" stop-color="#0077C3"/></linearGradient><clipPath id="a"><path fill="#fff" d="M0 0h36v36H0z"/></clipPath></defs></svg>