<svg width="20" height="20" fill="none" xmlns="http://www.w3.org/2000/svg"><g clip-path="url(#a)"><path d="M14.86 14.86A8.24 8.24 0 0 1 10 16.546C4.273 16.546 1 10 1 10a15.096 15.096 0 0 1 4.14-4.86m3.142-1.49A7.462 7.462 0 0 1 10 3.456c5.727 0 9 6.545 9 6.545a15.14 15.14 0 0 1-1.767 2.61m-5.498-.875a2.455 2.455 0 1 1-3.47-3.47M1 1l18 18" stroke="#A4A7AE" stroke-width="1.667" stroke-linecap="round" stroke-linejoin="round"/></g><defs><clipPath id="a"><path fill="#fff" d="M0 0h20v20H0z"/></clipPath></defs></svg>