<svg width="20" height="20" fill="none" xmlns="http://www.w3.org/2000/svg"><path d="M1 3.5C1 12.06 7.94 19 16.5 19c.386 0 .77-.014 1.148-.042.435-.032.653-.048.851-.162a1.06 1.06 0 0 0 .402-.432c.099-.206.099-.446.099-.926v-2.817c0-.404 0-.606-.067-.779a.999.999 0 0 0-.277-.396c-.14-.122-.33-.191-.71-.329l-3.206-1.166c-.441-.16-.662-.24-.872-.227a1 1 0 0 0-.513.182c-.171.121-.292.322-.534.725L12 14a12.1 12.1 0 0 1-6-6l1.369-.821c.402-.242.604-.363.725-.534a1 1 0 0 0 .182-.513c.014-.21-.066-.43-.227-.872L6.883 2.053c-.138-.38-.207-.569-.329-.709a1 1 0 0 0-.396-.278C5.985 1 5.783 1 5.379 1H2.562c-.48 0-.72 0-.926.1a1.06 1.06 0 0 0-.432.401c-.114.198-.13.416-.162.85C1.014 2.732 1 3.115 1 3.5Z" stroke="#0A0D12" stroke-width="1.5" stroke-linecap="round" stroke-linejoin="round"/></svg>