<svg width="16" height="16" fill="none" xmlns="http://www.w3.org/2000/svg"><g clip-path="url(#a)"><path d="M2 3.667C2 9.374 6.626 14 12.333 14c.258 0 .513-.01.766-.028.29-.021.435-.032.567-.108a.706.706 0 0 0 .268-.288c.066-.137.066-.297.066-.617V11.08c0-.27 0-.404-.044-.52a.666.666 0 0 0-.185-.264c-.094-.081-.22-.127-.473-.219L11.16 9.3c-.294-.107-.441-.16-.581-.152a.667.667 0 0 0-.342.122c-.114.08-.195.215-.356.483l-.548.913a8.067 8.067 0 0 1-4-4l.913-.548c.268-.16.403-.241.483-.356a.659.659 0 0 0 .122-.342c.009-.14-.045-.287-.152-.581l-.777-2.138c-.092-.253-.138-.38-.219-.473a.667.667 0 0 0-.264-.185C5.323 2 5.189 2 4.919 2H3.042c-.32 0-.48 0-.617.066a.707.707 0 0 0-.288.268c-.076.132-.087.277-.108.567A10.48 10.48 0 0 0 2 3.667Z" stroke="#0A0D12" stroke-width="1.3" stroke-linecap="round" stroke-linejoin="round"/></g><defs><clipPath id="a"><path fill="#fff" d="M0 0h16v16H0z"/></clipPath></defs></svg>