<svg width="16" height="16" fill="none" xmlns="http://www.w3.org/2000/svg"><path d="m7.964 16.006-.248-.105C7.44 15.786 1 13.016 1 8V3.65c0-.418.14-.826.397-1.165a2.085 2.085 0 0 1 1.039-.722L8 .006l5.564 1.757c.418.13.781.383 1.04.722.257.34.396.747.396 1.166V8c0 5.718-6.502 7.836-6.779 7.925l-.257.08ZM8 1.404 2.879 3.02a.694.694 0 0 0-.347.24.64.64 0 0 0-.132.39V8c0 3.662 4.508 6.039 5.633 6.574C9.156 14.144 13.6 12.175 13.6 8V3.65a.64.64 0 0 0-.132-.388.694.694 0 0 0-.347-.24L8 1.403Z" fill="#0086C9"/><path d="M7.456 9.695h-.022a1.248 1.248 0 0 1-.897-.4L5 7.695l.96-.922 1.497 1.56L10.91 4.88l.942.943L8.346 9.33a1.249 1.249 0 0 1-.89.366Z" fill="#0086C9"/></svg>