<svg width="20" height="20" fill="none" xmlns="http://www.w3.org/2000/svg"><path d="m3 4.918 2.18 3.896v2.377l-2.177 3.888L3 4.918Z" fill="#5B57A2"/><path d="m11.367 7.396 2.043-1.251 4.18-.004-6.223 3.812V7.396Z" fill="#D90751"/><path d="m11.36 4.895.012 5.159L9.188 8.71V1l2.173 3.895Z" fill="#FAB718"/><path d="m17.595 6.14-4.18.005-2.054-1.25L9.187 1l8.408 5.14Z" fill="#ED6F26"/><path d="M11.372 15.101v-2.503l-2.184-1.317V19l2.184-3.899Z" fill="#63B22F"/><path d="M13.407 13.86 5.18 8.814 3 4.918l14.583 8.937-4.176.005Z" fill="#1487C9"/><path d="m9.188 19 2.183-3.899 2.037-1.24 4.177-.006L9.187 19Z" fill="#017F36"/><path d="m3 15.08 6.2-3.799-2.084-1.279-1.939 1.189L3 15.079Z" fill="#984995"/></svg>