<svg width="32" height="32" fill="none" xmlns="http://www.w3.org/2000/svg"><g clip-path="url(#a)"><path d="M27.2 0H4.8A4.8 4.8 0 0 0 0 4.8v22.4A4.8 4.8 0 0 0 4.8 32h22.4a4.8 4.8 0 0 0 4.8-4.8V4.8A4.8 4.8 0 0 0 27.2 0Z" fill="#37AEE2"/><path d="M12.524 23.162c-.607 0-.552-.22-.717-.773l-1.767-5.796 13.524-7.948" fill="#C8DAEA"/><path d="M12.524 23.162c.387 0 .608-.22.884-.442l2.484-2.373L12.8 18.47" fill="#A9C9DD"/><path d="m12.8 18.47 7.451 5.465c.773.497 1.435.22 1.656-.773l3.036-14.241c.276-1.215-.497-1.767-1.325-1.38L5.9 14.386c-1.159.441-1.159 1.159-.22 1.435l4.58 1.435 10.489-6.68c.497-.275.938-.165.607.222" fill="#F6FBFE"/></g><defs><clipPath id="a"><path fill="#fff" d="M0 0h32v32H0z"/></clipPath></defs></svg>