<svg width="16" height="16" fill="none" xmlns="http://www.w3.org/2000/svg"><g clip-path="url(#a)"><path fill-rule="evenodd" clip-rule="evenodd" d="m8.404 14.484 2.56-5.759V1.5H3.489a.75.75 0 0 0-.741.637l-.994 6.55a.75.75 0 0 0 .741.862h3.767c.69 0 1.25.56 1.25 1.25v2.626c0 .53.385.972.892 1.06v-.001ZM12.464 1.5v6.634h1.286a.75.75 0 0 0 .75-.75V2.25a.75.75 0 0 0-.75-.75h-1.286ZM12.2 9.634l-2.51 5.65A1.206 1.206 0 0 1 8.588 16a2.576 2.576 0 0 1-2.576-2.575v-2.376H2.495A2.25 2.25 0 0 1 .271 8.461l.994-6.549A2.25 2.25 0 0 1 3.489 0H13.75A2.25 2.25 0 0 1 16 2.25v5.134a2.25 2.25 0 0 1-2.25 2.25H12.2Z" fill="#062C41"/></g><defs><clipPath id="a"><path fill="#fff" transform="rotate(180 8 8)" d="M0 0h16v16H0z"/></clipPath></defs></svg>