<svg width="32" height="32" fill="none" xmlns="http://www.w3.org/2000/svg"><g clip-path="url(#a)"><path d="M28 0H4a4 4 0 0 0-4 4v24a4 4 0 0 0 4 4h24a4 4 0 0 0 4-4V4a4 4 0 0 0-4-4Z" fill="#7B519D"/><path fill-rule="evenodd" clip-rule="evenodd" d="M24.039 20.334c-.591-.476-1.223-.903-1.845-1.34-1.24-.87-2.373-.938-3.299.463-.52.787-1.246.821-2.007.476-2.096-.95-3.715-2.415-4.664-4.546-.419-.943-.413-1.788.568-2.455.52-.352 1.043-.77 1.001-1.54-.054-1.005-2.494-4.362-3.457-4.716a1.752 1.752 0 0 0-1.201-.001c-2.259.76-3.194 2.617-2.298 4.817 2.673 6.562 7.377 11.13 13.852 13.918.37.16.78.223.987.28 1.474.014 3.201-1.406 3.7-2.816.48-1.356-.535-1.894-1.337-2.54Zm-7.26-12.986c4.733.728 6.916 2.98 7.52 7.747.055.44-.109 1.103.52 1.116.656.012.498-.64.503-1.082.056-4.49-3.86-8.653-8.407-8.807-.343.05-1.053-.236-1.097.533-.03.518.568.433.96.493Z" fill="#fff"/><path fill-rule="evenodd" clip-rule="evenodd" d="M17.704 8.656c-.455-.055-1.056-.27-1.163.362-.11.663.56.596.99.692 2.924.654 3.942 1.718 4.423 4.618.07.423-.07 1.081.65.972.532-.081.34-.645.384-.975.024-2.784-2.362-5.319-5.284-5.67Z" fill="#fff"/><path fill-rule="evenodd" clip-rule="evenodd" d="M17.974 10.932c-.304.008-.603.04-.714.366-.168.485.185.601.544.659 1.2.192 1.83.9 1.95 2.095.033.325.239.588.552.551.435-.052.474-.438.461-.806.021-1.344-1.497-2.897-2.793-2.865Z" fill="#fff"/></g><defs><clipPath id="a"><path fill="#fff" d="M0 0h32v32H0z"/></clipPath></defs></svg>