<svg width="36" height="36" fill="none" xmlns="http://www.w3.org/2000/svg"><path d="M33.52 5.898H2.484c-1.2 0-2.172.973-2.172 2.173v19.862c0 1.2.972 2.172 2.172 2.172h31.034c1.2 0 2.173-.972 2.173-2.172V8.07c0-1.2-.973-2.173-2.173-2.173Z" fill="#fff"/><path d="M15.983 22.613h-2.397l1.5-8.69h2.396l-1.5 8.69Zm8.691-8.477a6.254 6.254 0 0 0-2.15-.37c-2.367 0-4.033 1.183-4.044 2.875-.02 1.248 1.194 1.941 2.101 2.357.927.425 1.243.703 1.243 1.082-.01.582-.75.85-1.44.85-.957 0-1.47-.138-2.249-.462l-.315-.139-.336 1.951c.563.24 1.598.453 2.673.463 2.515 0 4.153-1.165 4.172-2.968.01-.99-.631-1.747-2.012-2.367-.838-.397-1.352-.665-1.352-1.072.01-.37.435-.749 1.381-.749a4.302 4.302 0 0 1 1.785.333l.217.092.326-1.876Z" fill="#15195A"/><path fill-rule="evenodd" clip-rule="evenodd" d="M28.961 13.923h1.854l1.934 8.69h-2.22s-.217-.998-.285-1.303h-3.078l-.503 1.303h-2.515l3.56-7.969c.247-.564.682-.72 1.253-.72Zm-.147 3.18-.957 2.432h1.992c-.099-.435-.553-2.515-.553-2.515l-.167-.748c-.07.192-.173.457-.242.636-.046.121-.078.203-.073.195Zm-25.61-3.18H7.06c.522.019.947.176 1.085.73l.838 3.993.256 1.203 2.347-5.926h2.535l-3.767 8.681H7.819l-2.136-7.55a10.147 10.147 0 0 0-2.519-.955l.04-.176Z" fill="#15195A"/></svg>