<svg width="20" height="20" fill="none" xmlns="http://www.w3.org/2000/svg"><path d="M15 6.665V6c0-.934 0-1.4-.182-1.757a1.666 1.666 0 0 0-.728-.728c-.357-.182-.823-.182-1.757-.182H5.167c-.934 0-1.4 0-1.757.182-.314.16-.569.414-.728.728C2.5 4.6 2.5 5.065 2.5 5.999v.666m0 0V14c0 .933 0 1.4.182 1.756.16.314.414.569.728.729.357.181.823.181 1.757.181h9.666c.934 0 1.4 0 1.757-.181a1.66 1.66 0 0 0 .728-.729c.182-.356.182-.823.182-1.756V9.332c0-.933 0-1.4-.182-1.757a1.666 1.666 0 0 0-.728-.728c-.357-.182-.823-.182-1.757-.182H2.5ZM17.5 10h-1.667a1.667 1.667 0 0 0 0 3.333H17.5" stroke="#0A0D12" stroke-width="1.5" stroke-linecap="round" stroke-linejoin="round"/></svg>