<svg width="32" height="32" fill="none" xmlns="http://www.w3.org/2000/svg"><g clip-path="url(#a)"><path d="M27.2 0H4.8A4.8 4.8 0 0 0 0 4.8v22.4A4.8 4.8 0 0 0 4.8 32h22.4a4.8 4.8 0 0 0 4.8-4.8V4.8A4.8 4.8 0 0 0 27.2 0Z" fill="#25D366"/><path d="m7.486 25.058.913-4.239a9 9 0 1 1 3.26 3.065l-4.173 1.174Z" fill="#25D366" stroke="#fff" stroke-width="1.696"/><path d="M19.248 17.063c-.187-.125-.375-.188-.562.063l-.75 1c-.188.124-.313.187-.563.062-.937-.5-2.25-1.063-3.375-2.937-.062-.25.063-.375.188-.5l.562-.875c.125-.125.063-.25 0-.375l-.75-1.813c-.187-.5-.375-.438-.562-.438h-.5c-.125 0-.375.063-.625.313-1.375 1.375-.813 3.313.187 4.562.188.25 1.438 2.5 4.125 3.688 2 .875 2.438.75 3 .625.688-.063 1.375-.625 1.688-1.188.062-.187.375-1 .125-1.125" fill="#fff"/></g><defs><clipPath id="a"><path fill="#fff" d="M0 0h32v32H0z"/></clipPath></defs></svg>